<svg xmlns="http://www.w3.org/2000/svg" version="1.1" xmlns:xlink="http://www.w3.org/1999/xlink" xmlns:svgjs="http://svgjs.dev/svgjs" width="65" height="64"><svg width="65" height="64" viewBox="0 0 65 64" fill="none" xmlns="http://www.w3.org/2000/svg">
<rect x="0.673828" y="2.65225" width="62.3261" height="61" rx="7.10783" fill="#1EC677"></rect>
<path d="M36.0572 26.8754C39.663 30.6653 39.6453 36.8286 36.0179 40.6414C32.3904 44.4542 26.5268 44.4727 22.9211 40.6828C19.3153 36.8928 19.333 30.7295 22.9604 26.9167C26.5879 23.1039 32.4515 23.0854 36.0572 26.8754Z" fill="white"></path>
<ellipse cx="2.12953" cy="2.12953" rx="2.12953" ry="2.12953" transform="matrix(0.69469 -0.719309 0.69469 0.719309 29.9661 37.8071)" fill="#1EC677"></ellipse>
<ellipse cx="2.12953" cy="2.12953" rx="2.12953" ry="2.12953" transform="matrix(0.69469 -0.719309 0.69469 0.719309 23.5398 31.153)" fill="#1EC677"></ellipse>
<rect width="10.8831" height="2.72078" rx="1.00269" transform="matrix(0.69469 -0.719309 -0.69469 -0.719309 26.9421 39.3726)" fill="#1EC677"></rect>
<path d="M37.4913 33.6323C37.4913 34.5883 37.3111 35.5051 36.9506 36.3827C36.6058 37.2446 36.12 37.9969 35.4931 38.6394C34.8819 39.282 34.1532 39.7992 33.3069 40.1909C32.4763 40.5671 31.5752 40.7551 30.6035 40.7551C29.6476 40.7551 28.7543 40.5749 27.9237 40.2145C27.0931 39.854 26.38 39.3603 25.7845 38.7335C25.1889 38.0909 24.7188 37.3387 24.374 36.4767C24.0292 35.5991 23.8568 34.651 23.8568 33.6323C23.8568 32.5666 24.037 31.6028 24.3975 30.7408C24.7736 29.8632 25.2673 29.111 25.8785 28.4841C26.5054 27.8572 27.2263 27.3714 28.0412 27.0266C28.8561 26.6818 29.7102 26.5094 30.6035 26.5094C31.5752 26.5094 32.4763 26.7053 33.3069 27.0971C34.1532 27.4733 34.8819 27.9904 35.4931 28.6486C36.12 29.2912 36.6058 30.0434 36.9506 30.9054C37.3111 31.7673 37.4913 32.6763 37.4913 33.6323ZM46.1186 20.1859C46.1186 19.512 45.7817 19.175 45.1078 19.175H40.3122C39.9831 19.175 39.7637 19.2534 39.654 19.4101C39.5443 19.5668 39.4268 19.8254 39.3014 20.1859L38.4081 22.6777C37.4051 21.5023 36.2219 20.5777 34.8584 19.9038C33.495 19.2142 31.9435 18.8694 30.2039 18.8694C28.1666 18.8694 26.2624 19.2612 24.4915 20.0448C22.7206 20.8127 21.1848 21.8706 19.884 23.2184C18.5989 24.5505 17.5803 26.1177 16.828 27.9199C16.0914 29.7222 15.7231 31.642 15.7231 33.6793C15.7231 35.889 16.1149 37.9029 16.8985 39.7208C17.6978 41.5387 18.7635 43.0981 20.0956 44.3988C21.4434 45.6839 22.987 46.6791 24.7266 47.3843C26.4818 48.0896 28.3076 48.4422 30.2039 48.4422C31.7241 48.4422 33.1424 48.1444 34.4588 47.5489C35.7752 46.9533 36.9506 46.1149 37.985 45.0335L38.2906 45.8328C38.3533 46.0052 38.4316 46.2168 38.5256 46.4675C38.6197 46.7026 38.7294 46.9377 38.8548 47.1727C38.9958 47.3922 39.1525 47.5802 39.3249 47.7369C39.513 47.8936 39.7245 47.972 39.9596 47.972H45.1078C45.7817 47.972 46.1186 47.6351 46.1186 46.9612V20.1859Z" fill="white"></path>
</svg><style>@media (prefers-color-scheme: light) { :root { filter: none; } }
@media (prefers-color-scheme: dark) { :root { filter: none; } }
</style></svg>