<svg width="132" height="39" viewBox="0 0 132 39" fill="none" xmlns="http://www.w3.org/2000/svg">
<path d="M3.35473 31.3969C3.35473 31.9363 3.631 32.206 4.18355 32.206H9.70898C10.2484 32.206 10.5181 31.9363 10.5181 31.3969V17.1491H14.1096C14.5964 17.1491 14.8397 16.8992 14.8397 16.3993V11.4066C14.8397 10.9067 14.5964 10.6568 14.1096 10.6568H10.5181V9.37406C10.5181 8.80836 10.5773 8.34791 10.6957 7.9927C10.8141 7.62434 10.9851 7.34149 11.2087 7.14416C11.4324 6.93366 11.7021 6.78895 12.0178 6.71001C12.3467 6.63108 12.7151 6.59161 13.1229 6.59161C13.4913 6.59161 13.7741 6.52583 13.9715 6.39427C14.1688 6.24956 14.2675 5.96671 14.2675 5.54572V1.16484C14.2675 0.7307 14.1885 0.441272 14.0307 0.296559C13.886 0.138689 13.5636 0.0597534 13.0637 0.0597534C11.5245 0.0597534 10.1497 0.283402 8.93937 0.7307C7.74219 1.178 6.72919 1.78316 5.90038 2.5462C5.07156 3.30924 4.44008 4.19725 4.00594 5.21025C3.5718 6.21009 3.35473 7.27571 3.35473 8.40711V10.6568H0.730147C0.53281 10.6568 0.361785 10.7225 0.217071 10.8541C0.072357 10.9725 0 11.1567 0 11.4066V16.3993C0 16.6492 0.0657791 16.84 0.197337 16.9715C0.342051 17.0899 0.519654 17.1491 0.730147 17.1491H3.35473V31.3969Z" fill="#1EC677"/>
<path d="M17.5161 31.3574C17.5161 31.9231 17.799 32.206 18.3647 32.206H23.9296C24.5084 32.206 24.7979 31.9231 24.7979 31.3574V18.3332C24.7979 17.6359 24.9097 17.0242 25.1333 16.4979C25.357 15.9585 25.6596 15.5112 26.0411 15.156C26.4358 14.8008 26.8896 14.5377 27.4027 14.3667C27.9158 14.1825 28.4618 14.0904 29.0406 14.0904C29.5405 14.0904 29.9944 14.1562 30.4022 14.2878C30.8101 14.4193 31.1719 14.5838 31.4876 14.7811C31.8165 14.9653 32.0993 15.1626 32.3361 15.3731C32.5861 15.5836 32.7966 15.7612 32.9676 15.9059C33.1781 16.0901 33.382 16.1822 33.5794 16.1822C33.803 16.1822 34.0004 16.0572 34.1714 15.8073L36.6381 12.3144C36.8223 12.0513 36.9144 11.8079 36.9144 11.5842C36.9144 11.3474 36.7499 11.0843 36.421 10.7949C36.2632 10.6502 35.9672 10.4134 35.533 10.0845C35.112 9.75558 34.5989 9.42011 33.9938 9.07806C33.4018 8.73601 32.7374 8.44 32.0007 8.19004C31.2639 7.92693 30.5009 7.79537 29.7116 7.79537C28.9485 7.79537 28.2842 7.88746 27.7185 8.07164C27.1659 8.25582 26.666 8.50578 26.2187 8.82152C25.7846 9.1241 25.3767 9.47931 24.9952 9.88714C24.6268 10.2818 24.2453 10.6962 23.8507 11.1304L23.0218 9.01886C22.8245 8.54525 22.6074 8.2624 22.3706 8.17031C22.147 8.07822 21.8904 8.03217 21.601 8.03217H18.3647C17.799 8.03217 17.5161 8.3216 17.5161 8.90046V31.3574Z" fill="#1EC677"/>
<path d="M55.5035 20.1684C55.5035 20.9709 55.3522 21.7405 55.0496 22.4772C54.7602 23.2008 54.3524 23.8323 53.8262 24.3717C53.3131 24.9111 52.7013 25.3452 51.9909 25.6741C51.2937 25.9898 50.5372 26.1477 49.7215 26.1477C48.919 26.1477 48.1692 25.9964 47.4719 25.6938C46.7746 25.3913 46.1761 24.9768 45.6761 24.4506C45.1762 23.9112 44.7815 23.2797 44.4921 22.5562C44.2027 21.8195 44.058 21.0235 44.058 20.1684C44.058 19.2738 44.2093 18.4647 44.5118 17.7412C44.8276 17.0044 45.242 16.373 45.7551 15.8467C46.2813 15.3205 46.8865 14.9127 47.5706 14.6232C48.2547 14.3338 48.9717 14.1891 49.7215 14.1891C50.5372 14.1891 51.2937 14.3535 51.9909 14.6824C52.7013 14.9982 53.3131 15.4323 53.8262 15.9849C54.3524 16.5242 54.7602 17.1557 55.0496 17.8793C55.3522 18.6029 55.5035 19.3659 55.5035 20.1684ZM62.7458 8.88072C62.7458 8.31502 62.4629 8.03217 61.8972 8.03217H57.8716C57.5953 8.03217 57.4111 8.09795 57.319 8.22951C57.2269 8.36107 57.1283 8.57814 57.023 8.88072L56.2731 10.9725C55.4312 9.98581 54.4379 9.20962 53.2933 8.64392C52.1488 8.06506 50.8464 7.77563 49.3861 7.77563C47.6758 7.77563 46.0774 8.10453 44.5908 8.76232C43.1042 9.40695 41.8149 10.295 40.723 11.4264C39.6442 12.5446 38.7891 13.8602 38.1576 15.3731C37.5393 16.886 37.2301 18.4976 37.2301 20.2079C37.2301 22.0628 37.559 23.7534 38.2168 25.2794C38.8877 26.8055 39.7823 28.1145 40.9006 29.2064C42.032 30.2852 43.3278 31.1206 44.7881 31.7126C46.2616 32.3046 47.7942 32.6006 49.3861 32.6006C50.6622 32.6006 51.8528 32.3507 52.9579 31.8508C54.063 31.3508 55.0496 30.647 55.9179 29.7393L56.1745 30.4102C56.2271 30.5549 56.2929 30.7325 56.3718 30.943C56.4507 31.1403 56.5428 31.3377 56.6481 31.535C56.7665 31.7192 56.898 31.8771 57.0428 32.0086C57.2006 32.1402 57.3782 32.206 57.5756 32.206H61.8972C62.4629 32.206 62.7458 31.9231 62.7458 31.3574V8.88072Z" fill="#1EC677"/>
<path d="M83.0937 24.4704C82.8569 24.6414 82.5806 24.8256 82.2649 25.0229C81.9623 25.2202 81.6268 25.4044 81.2585 25.5754C80.8901 25.7333 80.502 25.8649 80.0942 25.9701C79.6863 26.0754 79.2588 26.128 78.8115 26.128C78.0485 26.128 77.3315 25.9898 76.6605 25.7136C75.9896 25.4241 75.4107 25.0163 74.924 24.4901C74.4372 23.9639 74.0491 23.339 73.7597 22.6154C73.4834 21.8787 73.3453 21.063 73.3453 20.1684C73.3453 19.2738 73.49 18.4581 73.7794 17.7214C74.082 16.9847 74.4832 16.3532 74.9831 15.827C75.4831 15.2876 76.0619 14.8732 76.7197 14.5838C77.3775 14.2812 78.0682 14.1299 78.7918 14.1299C79.5416 14.1299 80.2652 14.2417 80.9625 14.4654C81.6597 14.6759 82.4228 15.0705 83.2516 15.6494C83.3831 15.7415 83.541 15.7875 83.7252 15.7875C83.9357 15.7875 84.087 15.7152 84.1791 15.5704L86.8826 11.3869C86.9878 11.2159 87.0141 11.0646 86.9615 10.933C86.922 10.7883 86.8234 10.6502 86.6655 10.5186C86.113 10.0845 85.5538 9.69638 84.9881 9.35433C84.4356 9.01228 83.8436 8.72943 83.2121 8.50578C82.5806 8.26898 81.9031 8.09137 81.1795 7.97297C80.456 7.84141 79.6469 7.77563 78.7523 7.77563C77.0552 7.77563 75.4568 8.10453 73.957 8.76232C72.4704 9.40695 71.168 10.2884 70.0497 11.4066C68.9446 12.5249 68.0698 13.8339 67.4251 15.3336C66.7805 16.8334 66.4582 18.4384 66.4582 20.1487C66.4582 21.9642 66.7805 23.635 67.4251 25.161C68.0829 26.6871 68.9709 28.0027 70.0892 29.1078C71.2206 30.2129 72.5428 31.0746 74.0557 31.6929C75.5686 32.3112 77.1802 32.6269 78.8904 32.6401C79.6008 32.6401 80.3178 32.5612 81.0414 32.4033C81.7781 32.2454 82.4885 32.0349 83.1726 31.7718C83.8699 31.4956 84.5145 31.1798 85.1065 30.8246C85.7117 30.4694 86.2314 30.101 86.6655 29.7195C86.8892 29.5222 87.0076 29.338 87.0207 29.167C87.0339 28.9959 86.9615 28.7789 86.8036 28.5158L84.1001 24.5493C84.008 24.3783 83.8436 24.2927 83.6068 24.2927C83.4358 24.2927 83.2647 24.3519 83.0937 24.4704Z" fill="#1EC677"/>
<path d="M102.551 14.7614C103.051 14.7614 103.301 14.5048 103.301 13.9918V8.88072C103.301 8.69654 103.235 8.52551 103.104 8.36764C102.985 8.20978 102.801 8.13084 102.551 8.13084H99.374V2.58567C99.374 2.19099 99.2753 1.89499 99.078 1.69765C98.8938 1.50031 98.657 1.40165 98.3676 1.40165C98.2097 1.40165 98.0584 1.42796 97.9137 1.48058L92.9606 3.11848C92.579 3.25004 92.3291 3.40133 92.2107 3.57235C92.0923 3.74338 92.0331 3.96703 92.0331 4.2433V8.13084H89.3888C89.1388 8.13084 88.948 8.2032 88.8165 8.34791C88.6849 8.47947 88.6191 8.65707 88.6191 8.88072V13.9918C88.6191 14.5048 88.8757 14.7614 89.3888 14.7614H92.0331V31.3771C92.0331 31.9297 92.3093 32.206 92.8619 32.206H98.5255C99.0912 32.206 99.374 31.9297 99.374 31.3771V14.7614H102.551Z" fill="#1EC677"/>
<path d="M121.439 31.4625C121.439 32.0413 121.742 32.3308 122.347 32.3308H127.655C128.234 32.3308 128.524 32.0413 128.524 31.4625V18.2606C128.524 16.9187 128.372 15.7281 128.07 14.6888C127.78 13.6495 127.386 12.7483 126.886 11.9853C126.399 11.2091 125.84 10.5645 125.208 10.0514C124.577 9.52517 123.926 9.10418 123.255 8.78844C122.597 8.45955 121.939 8.22932 121.281 8.09776C120.624 7.95305 120.032 7.88069 119.505 7.88069C118.821 7.88069 118.137 7.94647 117.453 8.07803C116.769 8.20959 116.105 8.42008 115.46 8.70951C114.815 8.98578 114.197 9.34757 113.605 9.79486C113.026 10.2422 112.493 10.7815 112.007 11.413L111.474 9.24232C111.395 8.95289 111.224 8.70293 110.961 8.49244C110.698 8.26879 110.415 8.15697 110.112 8.15697H106.599C105.994 8.15697 105.692 8.45297 105.692 9.04498V31.4427C105.692 32.0348 105.994 32.3308 106.599 32.3308H111.671C111.816 32.3308 111.96 32.3044 112.105 32.2518C112.263 32.186 112.408 32.1071 112.539 32.015C112.671 31.9098 112.776 31.7914 112.855 31.6598C112.934 31.5283 112.973 31.3901 112.973 31.2454V19.0105C112.973 18.3922 113.079 17.8199 113.289 17.2937C113.5 16.7543 113.796 16.2873 114.177 15.8926C114.559 15.4979 115.013 15.1887 115.539 14.9651C116.078 14.7414 116.67 14.6296 117.315 14.6296C117.96 14.6296 118.532 14.7414 119.032 14.9651C119.545 15.1887 119.979 15.4979 120.334 15.8926C120.689 16.2873 120.959 16.7543 121.143 17.2937C121.341 17.8199 121.439 18.3922 121.439 19.0105V31.4625Z" fill="#1EC677"/>
<path d="M54.96 13.2852C58.5388 16.9111 58.5388 22.7898 54.96 26.4157C51.3812 30.0417 45.5788 30.0417 42 26.4157C38.4212 22.7898 38.4212 16.9111 42 13.2852C45.5788 9.65928 51.3812 9.65928 54.96 13.2852Z" fill="#1EC677"/>
<ellipse cx="2.00156" cy="2.00156" rx="2.00156" ry="2.00156" transform="matrix(0.695507 -0.71852 0.695507 0.71852 48.7671 23.5236)" fill="white"/>
<ellipse cx="2.00156" cy="2.00156" rx="2.00156" ry="2.00156" transform="matrix(0.695507 -0.71852 0.695507 0.71852 42.72 17.2762)" fill="white"/>
<path d="M45.3362 24.3887C45.6595 24.7227 46.1837 24.7227 46.507 24.3887L52.4506 18.2485C52.7739 17.9144 52.7739 17.3729 52.4506 17.0389L51.8428 16.411C51.5195 16.077 50.9947 16.0777 50.6713 16.4117C48.4363 18.7207 46.9641 20.2416 44.7291 22.5505C44.4058 22.8846 44.4051 23.4268 44.7285 23.7608L45.3362 24.3887Z" fill="white"/>
</svg>
