<svg width="62" height="45" viewBox="0 0 62 45" fill="none" xmlns="http://www.w3.org/2000/svg">
<path d="M46.8935 12.3404C46.012 8.81703 43.9787 5.68909 41.1165 3.45332C38.2542 1.21755 34.727 0.00211164 31.095 2.74896e-06C27.463 -0.00210615 23.9344 1.20924 21.0696 3.44168C18.2047 5.67413 16.1678 8.7997 15.2822 12.3221C11.1051 12.7141 7.23955 14.7002 4.48849 17.8678C1.73743 21.0353 0.312324 25.141 0.5092 29.3318C0.706077 33.5227 2.5098 37.4766 5.5457 40.3723C8.58161 43.2681 12.6163 44.883 16.8118 44.8817H22.9301C23.471 44.8817 23.9897 44.6668 24.3722 44.2843C24.7547 43.9019 24.9695 43.3831 24.9695 42.8422C24.9695 42.3014 24.7547 41.7826 24.3722 41.4001C23.9897 41.0177 23.471 40.8028 22.9301 40.8028H16.8118C15.2049 40.8075 13.6127 40.4956 12.1263 39.885C10.6399 39.2744 9.28834 38.377 8.14875 37.244C5.84725 34.9559 4.54896 31.8472 4.53949 28.6019C4.53003 25.3565 5.81016 22.2403 8.09828 19.9388C10.3864 17.6373 13.4951 16.339 16.7404 16.3296C17.2637 16.369 17.783 16.2126 18.1975 15.8908C18.612 15.5689 18.8923 15.1046 18.9838 14.5879C19.3991 11.6757 20.8511 9.0111 23.0731 7.08344C25.2952 5.15579 28.1381 4.09451 31.0797 4.09451C34.0214 4.09451 36.8642 5.15579 39.0863 7.08344C41.3083 9.0111 42.7603 11.6757 43.1756 14.5879C43.2823 15.0867 43.5588 15.533 43.9578 15.8506C44.3569 16.1683 44.8539 16.3375 45.3639 16.3296C48.6093 16.3296 51.7217 17.6188 54.0165 19.9136C56.3113 22.2084 57.6005 25.3208 57.6005 28.5662C57.6005 31.8115 56.3113 34.924 54.0165 37.2188C51.7217 39.5136 48.6093 40.8028 45.3639 40.8028H39.2456C38.7047 40.8028 38.186 41.0177 37.8035 41.4001C37.421 41.7826 37.2062 42.3014 37.2062 42.8422C37.2062 43.3831 37.421 43.9019 37.8035 44.2843C38.186 44.6668 38.7047 44.8817 39.2456 44.8817H45.3639C49.5287 44.8381 53.5191 43.2034 56.5175 40.3125C59.5158 37.4217 61.2951 33.4935 61.4907 29.3331C61.6862 25.1727 60.2833 21.095 57.5693 17.9357C54.8553 14.7763 51.0358 12.7745 46.8935 12.3404Z" fill="white"/>
<path d="M39.8409 22.9522C40.2255 23.2791 40.7407 23.46 41.2754 23.4559C41.8102 23.4518 42.3217 23.2631 42.6998 22.9303C43.0779 22.5976 43.2924 22.1474 43.2971 21.6768C43.3017 21.2062 43.0962 20.7529 42.7247 20.4144L32.5275 11.4405C32.145 11.1041 31.6264 10.915 31.0856 10.915C30.5448 10.915 30.0262 11.1041 29.6437 11.4405L19.4465 20.4144C19.075 20.7529 18.8695 21.2062 18.8741 21.6768C18.8787 22.1474 19.0932 22.5976 19.4714 22.9303C19.8495 23.2631 20.361 23.4518 20.8957 23.4559C21.4305 23.46 21.9456 23.2791 22.3303 22.9522L29.0461 17.042V39.631C29.0461 40.107 29.261 40.5635 29.6435 40.9001C30.026 41.2367 30.5447 41.4258 31.0856 41.4258C31.6265 41.4258 32.1452 41.2367 32.5277 40.9001C32.9102 40.5635 33.125 40.107 33.125 39.631V17.042L39.8409 22.9522Z" fill="white"/>
</svg>
